# xmcd CD database file
#
# Track frame offsets:
#	183
#	35658
#	45558
#	49533
#	56508
#	62808
#	65058
#	68208
#	87183
#	113733
#	138933
#	154983
#	167733
#	181383
#	226233
#	248208
#	284508
#	302733
#
# Disc length: 4714 seconds
#
# Revision: 4
# Processed by: cddbd v1.5.1PL0 Copyright (c) Steve Scherf et al.
# Submitted via: CDex 1.51
#
DISCID=01126812
DTITLE=スヴャトスラフ・リヒテル - エッセンシャル・リヒテル_詩人
DYEAR=1986
DGENRE=クラシック (一般)
TTITLE0=ショパン/舟歌_嬰ヘ長調Op.60
TTITLE1=ショパン/前奏曲Op.28_第6番ロ短調
TTITLE2=ショパン/前奏曲Op.28_第7番イ長調
TTITLE3=ショパン/前奏曲Op.28_第8番嬰ヘ短調
TTITLE4=ショパン/前奏曲Op.28_第9番ホ長調
TTITLE5=ショパン/前奏曲Op.28_第10番嬰ハ短調
TTITLE6=ショパン/前奏曲Op.28_第11番ロ長調
TTITLE7=ショパン/エチュード第3番ホ長調Op.10-3<別れの曲>
TTITLE8=ショパン/エチュード第19番嬰ハ短調OP.25-7
TTITLE9=ベートーヴェン/ロンド_ハ長調Op.51-1
TTITLE10=ブラームス/幻想曲集Op.116-5ホ短調<間奏曲>
TTITLE11=ブラームス/8つのピアノ小品Op.76-8ハ長調<カプリッチョ>
TTITLE12=リスト/コンソレーション第6番ホ長調
TTITLE13=リスト/超絶技巧練習曲集第11番<夕べの調べ>
TTITLE14=リスト/3つの演奏会用練習曲第3番<ため息>
TTITLE15=シューマン/花の曲Op.19
TTITLE16=シューマン/夜想曲Op.23-4
TTITLE17=シューマン/幻想曲ハ長調Op.17第3楽章
EXTD=YEAR: 19861988
EXTT0=
EXTT1=
EXTT2=
EXTT3=
EXTT4=
EXTT5=
EXTT6=
EXTT7=
EXTT8=
EXTT9=
EXTT10=
EXTT11=
EXTT12=
EXTT13=
EXTT14=
EXTT15=
EXTT16=
EXTT17=
PLAYORDER=
